<svg xmlns="http://www.w3.org/2000/svg" xmlns:xlink="http://www.w3.org/1999/xlink" xmlns:lucid="lucid" width="1467" height="800"><g transform="translate(-240 -320)" lucid:page-tab-id="0_0"><path d="M0 0h1760v1360H0z" fill="#fff"/><path d="M280 366c0-3.3 2.7-6 6-6h548c3.3 0 6 2.7 6 6v708c0 3.3-2.7 6-6 6H286c-3.3 0-6-2.7-6-6z" fill="#fff" fill-opacity="0"/><path d="M303.87 360h11.9m11.93 0h11.9m11.92 0h11.9m11.93 0h11.9m11.92 0h11.92m11.9 0h11.9m11.93 0h11.9m11.92 0h11.92m11.9 0h11.92m11.9 0h11.92m11.9 0h11.92m11.92 0h11.9m11.92 0h11.92m11.9 0h11.92m11.9 0h11.93m11.9 0h11.92m11.92 0H697m11.9 0h11.93m11.9 0h11.92m11.92 0h11.9m11.92 0h11.9m11.92 0h11.9m11.92 0H834l3.03.82 2.15 2.15.82 3.03v6.1m0 12.2v12.22m0 12.2v12.2m0 12.22v12.2m0 12.2v12.22m0 12.2v12.2m0 12.22v12.2m0 12.2V543m0 12.2v12.2m0 12.22v12.2m0 12.2v12.22m0 12.2v12.22m0 12.2v12.2m0 12.22v12.2m0 12.2v12.22m0 12.2v12.2m0 12.22v12.2m0 12.2v12.22m0 12.2v12.2m0 12.22v12.2m0 12.2v12.22m0 12.2v12.2m0 12.22v12.2m0 12.2v12.22m0 12.2v12.2m0 12.22v12.2m0 12.22v12.2m0 12.2v12.22m0 12.2v12.2m0 12.22v6.1l-.82 3.03-2.15 2.15-3.03.82h-5.96m-11.9 0H804.2m-11.92 0h-11.9m-11.92 0h-11.9m-11.93 0h-11.9m-11.92 0H708.9m-11.9 0h-11.9m-11.93 0h-11.9m-11.92 0h-11.92m-11.9 0H613.6m-11.9 0h-11.92m-11.9 0h-11.92m-11.92 0h-11.9m-11.92 0H518.3m-11.9 0h-11.92m-11.9 0h-11.93m-11.9 0h-11.92m-11.92 0H423m-11.9 0h-11.93m-11.9 0h-11.92m-11.92 0h-11.9m-11.92 0h-11.9m-11.92 0h-11.9m-11.92 0H286l-3.03-.82-2.15-2.15-.82-3.03v-6.1m0-12.2v-12.22m0-12.2v-12.2m0-12.22v-12.2m0-12.2v-12.22m0-12.2v-12.2m0-12.22v-12.2m0-12.2V897m0-12.2v-12.2m0-12.22v-12.2m0-12.2v-12.22m0-12.2v-12.22m0-12.2v-12.2m0-12.22v-12.2m0-12.2V726.1m0-12.2v-12.2m0-12.22v-12.2m0-12.2v-12.22m0-12.2v-12.2m0-12.22v-12.2m0-12.2V579.6m0-12.2v-12.2m0-12.22v-12.2m0-12.2v-12.22m0-12.2v-12.2m0-12.22v-12.2m0-12.22v-12.2m0-12.2V408.7m0-12.2v-12.2m0-12.22V366l.82-3.03 2.15-2.15L286 360h5.96" stroke="#326ce5" stroke-width="3" fill="none"/><use xlink:href="#a" transform="matrix(1,0,0,1,280,380) translate(192.575 14.4)"/><use xlink:href="#b" transform="matrix(1,0,0,1,280,380) translate(271.525 14.4)"/><path d="M340 436c0-3.3 2.7-6 6-6h388c3.3 0 6 2.7 6 6v568c0 3.3-2.7 6-6 6H346c-3.3 0-6-2.7-6-6z" fill="#fff" fill-opacity="0"/><path d="M364.2 430h12.1m12.14 0h12.12m12.13 0h12.1m12.14 0h12.12m12.13 0h12.1m12.14 0h12.12m12.13 0h12.1m12.14 0h12.12m12.13 0h12.1m12.14 0h12.12m12.13 0h12.1m12.14 0h12.12m12.13 0h12.1m12.14 0h12.12m12.13 0h12.1m12.14 0H734l3.03.82 2.15 2.15.82 3.03v5.92m0 11.83v11.83m0 11.84v11.83m0 11.83v11.84m0 11.83v11.83m0 11.84v11.83m0 11.83v11.84m0 11.83v11.83m0 11.84v11.83m0 11.83v11.84m0 11.83v11.83m0 11.84v11.83m0 11.83v11.84m0 11.83v11.83m0 11.84v11.83m0 11.83v11.84m0 11.83v11.83m0 11.84v11.83m0 11.83v11.84m0 11.83v11.83m0 11.84v11.83m0 11.83v11.84m0 11.83v11.83m0 11.84v11.83m0 11.83v5.92l-.82 3.03-2.15 2.15-3.03.82h-6.06m-12.13 0h-12.1m-12.14 0h-12.12m-12.13 0h-12.1m-12.14 0h-12.12m-12.13 0h-12.1m-12.14 0h-12.12m-12.13 0h-12.1m-12.14 0h-12.12m-12.13 0h-12.1m-12.14 0h-12.12m-12.13 0h-12.1m-12.14 0h-12.12m-12.13 0h-12.1m-12.14 0h-12.12m-12.13 0h-12.1m-12.14 0H346l-3.03-.82-2.15-2.15-.82-3.03v-5.92m0-11.83v-11.83m0-11.84v-11.83m0-11.83v-11.84m0-11.83v-11.83m0-11.84v-11.83m0-11.83v-11.84m0-11.83v-11.83m0-11.84v-11.83m0-11.83v-11.84m0-11.83v-11.83m0-11.84v-11.83m0-11.83v-11.84m0-11.83v-11.83m0-11.84v-11.83m0-11.83v-11.84m0-11.83v-11.83m0-11.84v-11.83m0-11.83v-11.84m0-11.83v-11.83m0-11.84v-11.83m0-11.83v-11.84m0-11.83v-11.83m0-11.84v-11.83m0-11.83V436l.82-3.03 2.15-2.15L346 430h6.06" stroke="#326ce5" stroke-width="3" fill="none"/><use xlink:href="#c" transform="matrix(1,0,0,1,340,450.00000000000006) translate(144.05 14.4)"/><use xlink:href="#d" transform="matrix(1,0,0,1,340,450.00000000000006) translate(189.95000000000002 14.4)"/><use xlink:href="#e" transform="matrix(1,0,0,1,340,450.00000000000006) translate(223.95000000000002 14.4)"/><path d="M412.3 481.72c-.6.06-1.1.18-1.6.43l-21.35 10.53c-1.17.55-1.97 1.53-2.22 2.83l-5.3 23.7c-.24 1.12-.06 2.23.56 3.2.05.14.1.2.24.32l14.77 18.97c.8 1.03 1.92 1.6 3.22 1.6h23.76c1.3 0 2.4-.57 3.2-1.6l14.78-18.98c.8-1.04 1.1-2.28.8-3.57l-5.3-23.64c-.24-1.3-1.04-2.27-2.2-2.82l-21.37-10.53c-.7-.3-1.3-.5-2-.43z" stroke="#000" stroke-opacity="0" stroke-width="3.83" fill="#326ce5"/><path d="M412.3 480c-.65.06-1.17.2-1.7.45l-22.54 11.12c-1.24.58-2.08 1.63-2.34 3l-5.6 25.02c-.25 1.15-.06 2.32.6 3.37.06.13.13.2.25.32l15.6 20c.85 1.12 2.02 1.7 3.38 1.7h25.1c1.36 0 2.53-.6 3.38-1.7l15.6-20c.84-1.12 1.17-2.4.84-3.7l-5.6-25.04c-.25-1.37-1.1-2.4-2.33-3l-22.56-11.1c-.7-.33-1.36-.52-2.07-.46zm0 1.75c.72-.06 1.3.07 1.95.4l21.45 10.53c1.1.58 1.9 1.56 2.22 2.86l5.26 23.66c.26 1.3 0 2.46-.78 3.5l-14.82 18.98c-.78 1.05-1.88 1.63-3.2 1.63h-23.77c-1.3 0-2.4-.57-3.18-1.62L382.6 522.7c-.06-.06-.13-.2-.2-.32-.64-.98-.84-2-.58-3.18l5.26-23.67c.33-1.3 1.05-2.27 2.22-2.85l21.44-10.54c.52-.25.98-.38 1.56-.45z" stroke="#000" stroke-opacity="0" stroke-width="3.83" fill="#fff"/><path d="M411.9 536.55c0 .52-.2.92-.58 1.2-.38.3-.9.43-1.6.43-.67 0-1.2-.1-1.55-.33-.36-.23-.6-.6-.7-1.07l.78-.16c.08.3.24.52.47.66.24.14.57.2 1 .2.45 0 .78-.07 1-.2.2-.16.3-.37.3-.66 0-.22-.06-.4-.2-.53-.16-.14-.4-.26-.7-.34l-.66-.18c-.5-.14-.87-.27-1.1-.4-.2-.13-.38-.3-.5-.48-.12-.2-.18-.42-.18-.7 0-.5.17-.88.52-1.14.35-.27.86-.4 1.53-.4.6 0 1.06.1 1.4.32.36.22.58.56.67 1.03l-.8.12c-.05-.25-.18-.44-.4-.57-.22-.13-.5-.2-.87-.2-.4 0-.7.07-.9.2-.2.12-.28.3-.28.57 0 .15.04.28.12.4.07.08.2.18.35.24.16.08.48.18.98.3.47.12.82.24 1.02.35.2.1.38.22.5.35.12.13.2.27.28.44.07.15.1.34.1.55zM414.32 538.18c-.54 0-.95-.15-1.22-.44-.27-.3-.4-.7-.4-1.2 0-.58.18-1.02.54-1.33.37-.3.96-.46 1.77-.48l1.22-.02v-.3c0-.45-.1-.77-.28-.97-.18-.2-.48-.3-.87-.3-.4 0-.7.08-.88.22-.2.14-.3.36-.33.67l-.93-.1c.15-.98.86-1.48 2.15-1.48.66 0 1.17.16 1.5.48.35.32.52.78.52 1.38v2.4c0 .26.04.47.1.6.08.14.2.2.4.2.1 0 .2 0 .3-.02v.57c-.23.05-.46.08-.7.08-.33 0-.57-.1-.72-.26-.14-.2-.23-.47-.25-.85h-.03c-.23.42-.5.73-.8.9-.3.18-.67.26-1.1.26zm.2-.7c.33 0 .62-.07.88-.22.25-.15.45-.36.6-.63.15-.27.22-.54.22-.83v-.45l-.98.02c-.42 0-.74.05-.96.13-.2.08-.38.2-.5.38-.1.17-.17.4-.17.67 0 .3.1.53.25.7.16.16.38.24.67.24z" stroke="#000" stroke-opacity="0" fill="#fff"/><path d="M412.5 491.93l-14.56 6.68v10.03c0 9.24 6.2 17.9 14.56 20 8.36-2.1 14.56-10.76 14.56-20V498.6zm0 7.08c1.9 0 3.58 1.2 4.3 2.95.74 1.8.33 3.9-1 5.25-1.35 1.35-3.33 1.8-5.08 1.02-1.74-.73-2.88-2.46-2.88-4.4 0-2.68 2.1-4.8 4.66-4.8zm8.74 19.86c0 .1-.03.22-.1.33l-.34.47c-2.04 2.94-4.95 5.1-8.3 6.17-3.35-1.07-6.26-3.23-8.3-6.17l-.35-.48c-.06-.12-.1-.23-.1-.34v-2.67c0-3.68 5.84-5.56 8.75-5.56 2.9 0 8.74 1.88 8.74 5.55z" stroke="#000" stroke-opacity="0" stroke-width="3.77" fill="#fff"/><path d="M440 498.5c0-3.3 2.7-6 6-6h278c3.3 0 6 2.7 6 6v28c0 3.3-2.7 6-6 6H446c-3.3 0-6-2.7-6-6z" stroke="#000" stroke-opacity="0" stroke-width="3" fill="#fff" fill-opacity="0"/><use xlink:href="#f" transform="matrix(1,0,0,1,445,497.5) translate(0 19.75)"/><path d="M1120 366c0-3.3 2.7-6 6-6h528c3.3 0 6 2.7 6 6v328c0 3.3-2.7 6-6 6h-528c-3.3 0-6-2.7-6-6z" stroke="#232f3e" stroke-width="3" fill="#fff" fill-opacity="0"/><path d="M1120 360h56v56h-56v-56z" stroke="#fff" stroke-opacity="0" fill="#232f3e"/><path d="M1138.22 385.87c-.04.48.05.87.17 1.34.1.4.28.7.48 1.07.04.1.08.22.08.34 0 .2-.12.36-.28.46l-.95.62c-.12.08-.25.13-.37.13-.16 0-.33-.06-.45-.2-.2-.2-.36-.43-.52-.7-.17-.25-.3-.53-.46-.86-1.1 1.37-2.62 2.1-4.4 2.06-1.14.06-2.12-.3-2.95-1.08-.78-.8-1.15-1.76-1.1-2.85-.05-1.23.4-2.28 1.35-3.08 1.07-.85 2.3-1.23 3.66-1.16.57 0 1.02.02 1.6.1.57.1 1.1.2 1.72.33v-1.1c.08-.88-.16-1.67-.7-2.37-.74-.56-1.56-.8-2.46-.7-.53 0-1.03.07-1.6.2-.58.13-1.03.3-1.6.5l-.5.2h-.24c-.2 0-.33-.16-.33-.45v-.75c0-.18.04-.34.12-.5.12-.16.24-.26.4-.33.66-.3 1.2-.5 1.9-.67.77-.2 1.47-.3 2.3-.28 1.47-.13 2.78.26 3.9 1.2.94 1.05 1.35 2.28 1.22 3.67zm-6.07 2.28c.57 0 1.06-.1 1.6-.28.57-.2 1.02-.5 1.44-.96.23-.27.4-.56.48-.93.12-.45.16-.84.16-1.3V384c-.53-.1-.94-.17-1.43-.2h-1.4c-.8-.08-1.55.12-2.2.58-.54.45-.8 1.04-.75 1.73-.04.6.13 1.16.54 1.6.44.38.97.52 1.55.45zm12 1.6c-.22 0-.42-.03-.6-.15-.15-.17-.23-.36-.32-.6l-3.5-11.5-.1-.62c0-.24.1-.37.36-.37h1.47c.2 0 .37.04.57.15.17.18.25.37.3.6l2.5 9.96 2.38-9.93c0-.24.08-.44.28-.6.17-.12.37-.16.58-.15h1.2c.24 0 .4.03.6.15.17.18.25.36.3.6l2.33 9.94 2.56-10c.04-.2.16-.4.33-.58.15-.1.36-.17.56-.14h1.4c.16 0 .33.1.37.3v.31s0 .2-.12.35l-3.6 11.53c-.05.22-.13.42-.3.6-.2.1-.36.14-.57.13h-1.27c-.25.04-.45-.02-.62-.15-.16-.16-.25-.36-.3-.6l-2.3-9.6-2.3 9.6c-.03.24-.1.44-.27.6-.2.13-.4.2-.62.16zm19.2.38c-.82 0-1.5-.07-2.3-.25-.65-.13-1.14-.3-1.72-.6-.2-.1-.37-.23-.45-.42-.08-.14-.12-.28-.12-.43v-.75c0-.3.12-.46.32-.46h.3l.36.16c.58.23 1.03.4 1.6.5.62.14 1.15.2 1.8.2.8.05 1.5-.1 2.2-.5.48-.3.77-.8.72-1.4.05-.4-.12-.76-.36-1.04-.46-.4-.95-.65-1.52-.8l-2.18-.68c-.94-.25-1.73-.73-2.38-1.5-.5-.65-.74-1.35-.74-2.18 0-.6.12-1.08.4-1.6.3-.5.63-.9 1.08-1.22.5-.38.98-.6 1.6-.78.66-.18 1.2-.26 1.9-.25.32-.03.6-.03.97 0l1 .16.8.22.67.26c.16.1.28.22.45.38.08.15.12.3.12.5v.7c0 .32-.12.47-.37.47-.2-.03-.37-.08-.57-.18-.95-.42-1.8-.6-2.88-.58-.7-.04-1.3.1-1.97.4-.5.3-.74.8-.7 1.36 0 .4.13.76.46 1.05.5.4.98.65 1.6.82l2.1.67c.94.24 1.67.7 2.3 1.44.48.64.7 1.3.7 2.1 0 .63-.13 1.17-.38 1.73-.3.55-.62.95-1.1 1.32-.5.4-1 .66-1.6.84-.75.23-1.4.33-2.15.34zM1166.1 397.48c-5.6 3.82-11.36 5.58-18.15 5.56-8.54.05-15.82-2.74-22.16-8.45-.5-.42 0-1 .48-.68 7.07 4.05 14.03 5.9 22.2 5.9 6.1-.04 11.3-1.1 16.93-3.47.83-.35 1.52.55.7 1.13z" stroke="#fff" stroke-opacity="0" fill="#fff"/><path d="M1168.16 395.2c-.64-.82-4.16-.38-5.75-.2-.46 0-.53-.36-.1-.66 2.8-1.98 7.42-1.4 8-.74.6.67-.14 5.28-2.78 7.5-.4.32-.78.13-.6-.3.54-1.52 1.86-4.83 1.24-5.6z" stroke="#fff" stroke-opacity="0" fill="#fff"/><use xlink:href="#g" transform="matrix(1,0,0,1,1191,380) translate(0 14.4)"/><use xlink:href="#h" transform="matrix(1,0,0,1,1191,380) translate(41.95 14.4)"/><use xlink:href="#i" transform="matrix(1,0,0,1,1191,380) translate(152.8 14.4)"/><path d="M1238.08 514.12c-.32-.36-.56-.72-.8-1.08-1.36-2.28-2.08-4.38-2.56-6.9-2-8.34-7.28-14.76-15.6-19.08-5.84-3.12-11.76-5.16-18.72-4.38-9.28 1.02-17.12 4.08-22.56 11.16-3.12 4.2-5.28 8.04-7.12 12.84-1.68 4.14-1.52 8.64-3.6 12.66-.48.84-.96 1.5-1.52 2.28-1.44 1.98-3.36 3.78-4.4 5.88-2.56 5.22-1.12 8.22 4.56 10.8l1.84.72c6.64 2.34 22.24 5.28 31.84 2.04 2.4-.66 4.32-1.38 6.48-2.46 7.68-3.6 15.36-7.32 23.04-10.98 3.6-1.62 6.48-3.48 9.2-6.18 2.48-2.52 2.4-4.86-.08-7.32z" fill="#4b612c"/><path d="M1210.96 485.6c4.28 1.34 7.7 3.08 11.18 5.78 2.42 1.68 8.97 7.64 10.46 15.06.15 1.12.3 2.25.5 3.32.22.5.5.9.86 1.3l.78 1.73s1.42 2 2.2 2.97c1 1.24 1.36 2.47.3 3.7-2.5 2.82-5.7 4.8-9.62 6.58l.36-3.65-2.57-.67c-.98 1.96-.34 3.43 2.08 4.5-2.28 1.06-4.34 2.02-6.34 2.92-6.2 2.92-12.3 5.9-18.5 8.76-4.77 2.2-9.4 3.1-14.74 3-6.2-.23-11.46-1.13-17.3-2.93-2.5-.84-4.55-4.33-3.77-6.52.36-1.07 1.64-1.74 2.85-1.52 4.34.4 8.68.85 13.02 1.3 4.77.5 9.6 1.46 14.38 1.46 5.48 0 10.68-1.47 15.8-3.33-1.56.1-3.13.17-4.62.28-4.34.28-8.6.4-12.88.9-5.34.62-10.33-.4-15.38-1.52-4.13-.78-7.4-2.75-9.75-5.84-.93-1.25-1.5-2.6-.8-3.9.58.46 1.22 1.3 1.65 1.25.5-.06 1.35-.8 1.64-1.4.64-1.53 1.07-3.1 1.56-4.67.8-2.98 1.64-5.5 2.78-8.43 2.2-4.95 4.63-9.9 8.4-14.17 1.42-1.68 2.78-3.03 4.63-4.44 2.2-1.74 5.13-2.3 8.05-2.58 3.35-.28 6.76-.1 10.25-.17.14 0 .36.16.57.2z" fill="#759c3e"/><path d="M1232.62 506.45c-.7-1.4-1.4-2.5-2.26-3.8-.8-1-1.64-1.72-2.77-2.4-5.04-3.08-11.93-1.96-15.4 2.45-2.85 3.5-4.15 7.5-4.92 11.67-.22 1.25-.4 2.5-.64 4.1-1.5-2.25-2.18-4.48-2.2-7.1-.3-5.03.53-9.9 4.12-14.1 2.54-2.98 5.56-5.43 10-5.98 1.24-.06 2.3-.03 3.55.1 1.37 1.04 2.98 1.88 4.02 3.1 2.94 3.2 4.83 6.35 6.2 10.27.15.57.24 1.08.3 1.68z" fill="#b7ca9d"/><path d="M1210.94 485.6c-4.92 1.2-7.77 4.4-10.12 8.1-3.36 5.3-5.82 10.92-5.7 17.08.03 3.74.8 6.88 2.5 10.28.2.33.3.7.55 1.27-1.8.07-3.4-.64-4.37-1.98-1.87-2.4-2.68-4.9-2.52-7.8.2-7.97 1.94-15.63 7.87-22.06 1.36-1.43 2.62-2.6 4.23-3.82 1.6-1.27 3.47-1.83 5.6-1.72z" fill="#b7ca9d"/><path d="M1234.73 512.8c0 1.96-1.54 3-3.02 4.06-7.5 5.28-16.24 8.07-25.54 9.58-4.12.67-8.3 1.27-12.5 1.72-5.05.53-9.8-1.03-14.6-2.13-1.96-.45-3.87-1-5.9-1.52 0-.18 0-.35.06-.54.93-.07 1.73-.07 2.65 0 3.88.6 7.7 1.46 11.57 1.8 3.76.35 7.02.35 10.78 0 7.02-.63 12.93-1.83 19.58-4.03 3.88-1.36 7.02-2.72 10.6-4.54 2.7-1.35 5.22-3.04 5.53-6.13zM1225.42 521.74c1.86-.98 3.68-2.04 5.6-2.9.9-.25 1.67-.35 2.6-.32l.18.4-5.82 3.47z" fill="#b7ca9d"/><path d="M1240 488.5c0-3.3 2.7-6 6-6h328c3.3 0 6 2.7 6 6v48c0 3.3-2.7 6-6 6h-328c-3.3 0-6-2.7-6-6z" stroke="#000" stroke-opacity="0" stroke-width="3" fill="#fff" fill-opacity="0"/><use xlink:href="#j" transform="matrix(1,0,0,1,1245,487.5) translate(0 28.5)"/><path d="M1168.06 512.5H748.5" stroke="#5e5e5e" stroke-width="2" fill="none"/><path d="M1168.78 513.5h-.74v-2h1.3z" fill="#5e5e5e"/><path d="M733.24 512.5l14.26-4.64v9.28z" stroke="#5e5e5e" stroke-width="2" fill="#5e5e5e"/><use xlink:href="#k" transform="matrix(1,0,0,1,928.3471743122029,487.16668408540704) translate(0 14.222222222222223)"/><use xlink:href="#l" transform="matrix(1,0,0,1,928.3471743122029,487.16668408540704) translate(17.77777777777778 14.222222222222223)"/><path d="M1203.35 652.02h-38.3c-.9 0-1.67-.74-1.67-1.7v-49.48c0-.95.76-1.7 1.68-1.7h51c.93 0 1.7.75 1.7 1.7v15.97h-3.38v-14.27h-47.63v46.1h36.6zM1216.1 596.17H1165c-.94 0-1.7-.78-1.7-1.7 0-.37.1-.7.33-.98l9.15-12.8c.33-.44.76-.7 1.36-.7H1207c.54 0 1.03.26 1.36.7l9.1 12.8c.54.75.38 1.8-.4 2.35-.3.22-.64.32-.97.32zm-47.8-3.4h44.47l-6.65-9.36h-31.16z" stroke="#fff" stroke-opacity="0" fill="#cd2264"/><path d="M1201.75 640.85h-22.32c-.92 0-1.7-.77-1.7-1.7v-28.72c0-.93.78-1.7 1.7-1.7h22.32c.93 0 1.7.77 1.7 1.7v28.72c0 .93-.77 1.7-1.7 1.7zm-20.62-3.4h18.92v-25.3h-18.92z" stroke="#fff" stroke-opacity="0" fill="#cd2264"/><path d="M1184.14 616.7h12.75v3.4h-12.76v-3.4zM1184.14 623.08h12.75v3.4h-12.76v-3.4zM1184.14 629.46h12.75v3.4h-12.76v-3.4zM1238.27 660h-28.64c-.93 0-1.7-.77-1.7-1.7v-23.94c0-.47.16-.88.48-1.2.37-.33.75-.5 1.23-.5h28.67c.93 0 1.7.77 1.7 1.7v23.95c0 .93-.77 1.7-1.7 1.7h-.03zm-26.94-3.42h25.24v-20.5h-25.24z" stroke="#fff" stroke-opacity="0" fill="#cd2264"/><path d="M1233.6 634.57h-3.38V628c.1-3.57-2.65-6.6-6.24-6.8-3.58.17-6.4 3.2-6.26 6.8v6.64h-3.4v-6.6c-.13-5.5 4.2-10.07 9.66-10.22 5.46.2 9.75 4.74 9.6 10.2zM1223.96 648.27c-2.63 0-4.76-2.13-4.76-4.76 0-2.64 2.13-4.78 4.76-4.78 2.63-.16 4.9 1.86 5.05 4.5.17 2.63-1.84 4.9-4.47 5.05h-.57zm0-6.14c-.65.07-1.15.56-1.22 1.2-.08.77.47 1.45 1.22 1.54.38 0 .7-.13.96-.4.28-.26.42-.6.42-.98s-.13-.7-.4-.98c-.27-.27-.6-.4-.98-.4zM1223.96 646.57v6.6" stroke="#fff" stroke-opacity="0" fill="#cd2264"/><path d="M1222.26 646.57h3.4v6.6h-3.4v-6.6z" stroke="#fff" stroke-opacity="0" fill="#cd2264"/><path d="M1165 594.23h50.95v56.07H1165v-56.07z" stroke="#fff" stroke-opacity="0" stroke-width=".28" fill="#fff" fill-opacity="0"/><path d="M1223.45 619.62h.87c5.08 0 7.62 2.86 7.62 8.57v1.4c0 5.7-2.54 8.56-7.62 8.56h-.87c-5.07 0-7.6-2.85-7.6-8.56v-1.4c0-5.72 2.53-8.58 7.6-8.58z" stroke="#fff" stroke-opacity="0" stroke-width=".18" fill="#fff" fill-opacity="0"/><path d="M1240 596c0-3.3 2.7-6 6-6h328c3.3 0 6 2.7 6 6v48c0 3.3-2.7 6-6 6h-328c-3.3 0-6-2.7-6-6z" stroke="#000" stroke-opacity="0" stroke-width="3" fill="#fff" fill-opacity="0"/><use xlink:href="#m" transform="matrix(1,0,0,1,1245,595) translate(0 28.5)"/><path d="M692 533.5v54.96c0 3.3 2.7 6 6 6h446.8" stroke="#5e5e5e" stroke-width="2" fill="none"/><path d="M693 533.53h-2v-1.03h2z" fill="#5e5e5e"/><path d="M1160.06 594.46l-14.26 4.63v-9.28z" stroke="#5e5e5e" stroke-width="2" fill="#5e5e5e"/><use xlink:href="#n" transform="matrix(1,0,0,1,897.4074074074074,547.7895143333333) translate(0.0049999999999954525 14.222222222222223)"/><use xlink:href="#o" transform="matrix(1,0,0,1,897.4074074074074,547.7895143333333) translate(19.758086419753084 14.222222222222223)"/><use xlink:href="#p" transform="matrix(1,0,0,1,897.4074074074074,547.7895143333333) translate(88.64697530864197 14.222222222222223)"/><use xlink:href="#q" transform="matrix(1,0,0,1,897.4074074074074,547.7895143333333) translate(31.733395061728388 35.55555555555556)"/><use xlink:href="#r" transform="matrix(1,0,0,1,897.4074074074074,547.7895143333333) translate(81.70870370370369 35.55555555555556)"/><path d="M365 611c0-3.3 2.7-6 6-6h228c3.3 0 6 2.7 6 6v18c0 3.3-2.7 6-6 6H371c-3.3 0-6-2.7-6-6z" stroke="#000" stroke-opacity="0" stroke-width="3" fill="#fff" fill-opacity="0"/><use xlink:href="#s" transform="matrix(1,0,0,1,370,610) translate(21.651475694444414 17.7734375)"/><path d="M1162.38 620H623.5" stroke="#5e5e5e" stroke-width="2" fill="none"/><path d="M1163.38 621h-1.03v-2h1.03z" fill="#5e5e5e"/><path d="M608.24 620l14.26-4.64v9.28z" stroke="#5e5e5e" stroke-width="2" fill="#5e5e5e"/><use xlink:href="#t" transform="matrix(1,0,0,1,906.1728395061727,624) translate(0.0049999999999954525 14.222222222222223)"/><use xlink:href="#u" transform="matrix(1,0,0,1,906.1728395061727,624) translate(19.758086419753084 14.222222222222223)"/><use xlink:href="#p" transform="matrix(1,0,0,1,906.1728395061727,624) translate(81.7827777777778 14.222222222222223)"/><use xlink:href="#q" transform="matrix(1,0,0,1,906.1728395061727,624) translate(6.646975308641984 35.55555555555556)"/><use xlink:href="#v" transform="matrix(1,0,0,1,906.1728395061727,624) translate(56.622283950617295 35.55555555555556)"/><use xlink:href="#w" transform="matrix(1,0,0,1,906.1728395061727,624) translate(99.98030864197533 35.55555555555556)"/><path d="M1120 746c0-3.3 2.7-6 6-6h528c3.3 0 6 2.7 6 6v328c0 3.3-2.7 6-6 6h-528c-3.3 0-6-2.7-6-6z" stroke="#232f3e" stroke-width="3" fill="#fff" fill-opacity="0"/><path d="M1120 740h56v56h-56v-56z" stroke="#fff" stroke-opacity="0" fill="#232f3e"/><path d="M1138.22 765.87c-.04.48.05.87.17 1.34.1.4.28.7.48 1.07.04.1.08.22.08.34 0 .2-.12.36-.28.46l-.95.62c-.12.08-.25.13-.37.13-.16 0-.33-.06-.45-.2-.2-.2-.36-.43-.52-.7-.17-.25-.3-.53-.46-.86-1.1 1.37-2.62 2.1-4.4 2.06-1.14.06-2.12-.3-2.95-1.08-.78-.8-1.15-1.76-1.1-2.85-.05-1.23.4-2.28 1.35-3.08 1.07-.85 2.3-1.23 3.66-1.16.57 0 1.02.02 1.6.1.57.1 1.1.2 1.72.33v-1.1c.08-.88-.16-1.67-.7-2.37-.74-.56-1.56-.8-2.46-.7-.53 0-1.03.07-1.6.2-.58.13-1.03.3-1.6.5l-.5.2h-.24c-.2 0-.33-.16-.33-.45v-.75c0-.18.04-.34.12-.5.12-.16.24-.26.4-.33.66-.3 1.2-.5 1.9-.67.77-.2 1.47-.3 2.3-.28 1.47-.13 2.78.26 3.9 1.2.94 1.05 1.35 2.28 1.22 3.67zm-6.07 2.28c.57 0 1.06-.1 1.6-.28.57-.2 1.02-.5 1.44-.96.23-.27.4-.56.48-.93.12-.45.16-.84.16-1.3V764c-.53-.1-.94-.17-1.43-.2h-1.4c-.8-.08-1.55.12-2.2.58-.54.45-.8 1.04-.75 1.73-.04.6.13 1.16.54 1.6.44.38.97.52 1.55.45zm12 1.6c-.22 0-.42-.03-.6-.15-.15-.17-.23-.36-.32-.6l-3.5-11.5-.1-.62c0-.24.1-.37.36-.37h1.47c.2 0 .37.04.57.15.17.18.25.37.3.6l2.5 9.96 2.38-9.93c0-.24.08-.44.28-.6.17-.12.37-.16.58-.15h1.2c.24 0 .4.03.6.15.17.18.25.36.3.6l2.33 9.94 2.56-10c.04-.2.16-.4.33-.58.15-.1.36-.17.56-.14h1.4c.16 0 .33.1.37.3v.31s0 .2-.12.35l-3.6 11.53c-.05.22-.13.42-.3.6-.2.1-.36.14-.57.13h-1.27c-.25.04-.45-.02-.62-.15-.16-.16-.25-.36-.3-.6l-2.3-9.6-2.3 9.6c-.03.24-.1.44-.27.6-.2.13-.4.2-.62.16zm19.2.38c-.82 0-1.5-.07-2.3-.25-.65-.13-1.14-.3-1.72-.6-.2-.1-.37-.23-.45-.42-.08-.14-.12-.28-.12-.43v-.75c0-.3.12-.46.32-.46h.3l.36.16c.58.23 1.03.4 1.6.5.62.14 1.15.2 1.8.2.8.05 1.5-.1 2.2-.5.48-.3.77-.8.72-1.4.05-.4-.12-.76-.36-1.04-.46-.4-.95-.65-1.52-.8l-2.18-.68c-.94-.25-1.73-.73-2.38-1.5-.5-.65-.74-1.35-.74-2.18 0-.6.12-1.08.4-1.6.3-.5.63-.9 1.08-1.22.5-.38.98-.6 1.6-.78.66-.18 1.2-.26 1.9-.25.32-.03.6-.03.97 0l1 .16.8.22.67.26c.16.1.28.22.45.38.08.15.12.3.12.5v.7c0 .32-.12.47-.37.47-.2-.03-.37-.08-.57-.18-.95-.42-1.8-.6-2.88-.58-.7-.04-1.3.1-1.97.4-.5.3-.74.8-.7 1.36 0 .4.13.76.46 1.05.5.4.98.65 1.6.82l2.1.67c.94.24 1.67.7 2.3 1.44.48.64.7 1.3.7 2.1 0 .63-.13 1.17-.38 1.73-.3.55-.62.95-1.1 1.32-.5.4-1 .66-1.6.84-.75.23-1.4.33-2.15.34zM1166.1 777.48c-5.6 3.82-11.36 5.58-18.15 5.56-8.54.05-15.82-2.74-22.16-8.45-.5-.42 0-1 .48-.68 7.07 4.05 14.03 5.9 22.2 5.9 6.1-.04 11.3-1.1 16.93-3.47.83-.35 1.52.55.7 1.13z" stroke="#fff" stroke-opacity="0" fill="#fff"/><path d="M1168.16 775.2c-.64-.82-4.16-.38-5.75-.2-.46 0-.53-.36-.1-.66 2.8-1.98 7.42-1.4 8-.74.6.67-.14 5.28-2.78 7.5-.4.32-.78.13-.6-.3.54-1.52 1.86-4.83 1.24-5.6z" stroke="#fff" stroke-opacity="0" fill="#fff"/><use xlink:href="#x" transform="matrix(1,0,0,1,1191,760) translate(0 14.4)"/><use xlink:href="#y" transform="matrix(1,0,0,1,1191,760) translate(64.9 14.4)"/><use xlink:href="#z" transform="matrix(1,0,0,1,1191,760) translate(113.80000000000001 14.4)"/><use xlink:href="#i" transform="matrix(1,0,0,1,1191,760) translate(195.70000000000002 14.4)"/><path d="M1260 826c0-3.3 2.7-6 6-6h328c3.3 0 6 2.7 6 6v48c0 3.3-2.7 6-6 6h-328c-3.3 0-6-2.7-6-6z" stroke="#000" stroke-opacity="0" stroke-width="3" fill="#fff" fill-opacity="0"/><use xlink:href="#A" transform="matrix(1,0,0,1,1265,825) translate(0 28.5)"/><use xlink:href="#B" transform="matrix(1,0,0,1,1265,825) translate(46.6111111111111 28.5)"/><use xlink:href="#C" transform="matrix(1,0,0,1,1265,825) translate(118.7222222222222 28.5)"/><use xlink:href="#D" transform="matrix(1,0,0,1,1265,825) translate(173.05555555555551 28.5)"/><path d="M1238.08 851.62c-.32-.36-.56-.72-.8-1.08-1.36-2.28-2.08-4.38-2.56-6.9-2-8.34-7.28-14.76-15.6-19.08-5.84-3.12-11.76-5.16-18.72-4.38-9.28 1.02-17.12 4.08-22.56 11.16-3.12 4.2-5.28 8.04-7.12 12.84-1.68 4.14-1.52 8.64-3.6 12.66-.48.84-.96 1.5-1.52 2.28-1.44 1.98-3.36 3.78-4.4 5.88-2.56 5.22-1.12 8.22 4.56 10.8l1.84.72c6.64 2.34 22.24 5.28 31.84 2.04 2.4-.66 4.32-1.38 6.48-2.46 7.68-3.6 15.36-7.32 23.04-10.98 3.6-1.62 6.48-3.48 9.2-6.18 2.48-2.52 2.4-4.86-.08-7.32z" fill="#4b612c"/><path d="M1210.96 823.1c4.28 1.34 7.7 3.08 11.18 5.78 2.42 1.68 8.97 7.64 10.46 15.06.15 1.12.3 2.25.5 3.32.22.5.5.9.86 1.3l.78 1.73s1.42 2 2.2 2.97c1 1.24 1.36 2.47.3 3.7-2.5 2.82-5.7 4.8-9.62 6.58l.36-3.65-2.57-.67c-.98 1.96-.34 3.43 2.08 4.5-2.28 1.06-4.34 2.02-6.34 2.92-6.2 2.92-12.3 5.9-18.5 8.76-4.77 2.2-9.4 3.1-14.74 3-6.2-.23-11.46-1.13-17.3-2.93-2.5-.84-4.55-4.33-3.77-6.52.36-1.07 1.64-1.74 2.85-1.52 4.34.4 8.68.85 13.02 1.3 4.77.5 9.6 1.46 14.38 1.46 5.48 0 10.68-1.47 15.8-3.33-1.56.1-3.13.17-4.62.28-4.34.28-8.6.4-12.88.9-5.34.62-10.33-.4-15.38-1.52-4.13-.78-7.4-2.75-9.75-5.84-.93-1.25-1.5-2.6-.8-3.9.58.46 1.22 1.3 1.65 1.25.5-.06 1.35-.8 1.64-1.4.64-1.53 1.07-3.1 1.56-4.67.8-2.98 1.64-5.5 2.78-8.43 2.2-4.95 4.63-9.9 8.4-14.17 1.42-1.68 2.78-3.03 4.63-4.44 2.2-1.74 5.13-2.3 8.05-2.58 3.35-.28 6.76-.1 10.25-.17.14 0 .36.16.57.2z" fill="#759c3e"/><path d="M1232.62 843.95c-.7-1.4-1.4-2.5-2.26-3.8-.8-1-1.64-1.72-2.77-2.4-5.04-3.08-11.93-1.96-15.4 2.45-2.85 3.5-4.15 7.5-4.92 11.67-.22 1.25-.4 2.5-.64 4.1-1.5-2.25-2.18-4.48-2.2-7.1-.3-5.03.53-9.9 4.12-14.1 2.54-2.98 5.56-5.43 10-5.98 1.24-.06 2.3-.03 3.55.1 1.37 1.04 2.98 1.88 4.02 3.1 2.94 3.2 4.83 6.35 6.2 10.27.15.57.24 1.08.3 1.68z" fill="#b7ca9d"/><path d="M1210.94 823.1c-4.92 1.2-7.77 4.4-10.12 8.1-3.36 5.3-5.82 10.92-5.7 17.08.03 3.74.8 6.88 2.5 10.28.2.33.3.7.55 1.27-1.8.07-3.4-.64-4.37-1.98-1.87-2.4-2.68-4.9-2.52-7.8.2-7.97 1.94-15.63 7.87-22.06 1.36-1.43 2.62-2.6 4.23-3.82 1.6-1.27 3.47-1.83 5.6-1.72z" fill="#b7ca9d"/><path d="M1234.73 850.3c0 1.96-1.54 3-3.02 4.06-7.5 5.28-16.24 8.07-25.54 9.58-4.12.67-8.3 1.27-12.5 1.72-5.05.53-9.8-1.03-14.6-2.13-1.96-.45-3.87-1-5.9-1.52 0-.18 0-.35.06-.54.93-.07 1.73-.07 2.65 0 3.88.6 7.7 1.46 11.57 1.8 3.76.35 7.02.35 10.78 0 7.02-.63 12.93-1.83 19.58-4.03 3.88-1.36 7.02-2.72 10.6-4.54 2.7-1.35 5.22-3.04 5.53-6.13zM1225.42 859.24c1.86-.98 3.68-2.04 5.6-2.9.9-.25 1.67-.35 2.6-.32l.18.4-5.82 3.47z" fill="#b7ca9d"/><path d="M485 636v18c0 3.3 2.7 6 6 6h287.53c3.32 0 6 2.7 6 6v178c0 3.3 2.7 6 6 6h360.03" stroke="#5e5e5e" stroke-width="2" fill="none"/><path d="M486 636.03h-2V635h2z" fill="#5e5e5e"/><path d="M1165.83 850l-14.27 4.64v-9.28z" stroke="#5e5e5e" stroke-width="2" fill="#5e5e5e"/><use xlink:href="#E" transform="matrix(1,0,0,1,909.3954004544122,803.3333333333333) translate(0.0049999999999954525 14.222222222222223)"/><use xlink:href="#F" transform="matrix(1,0,0,1,909.3954004544122,803.3333333333333) translate(19.758086419753084 14.222222222222223)"/><use xlink:href="#p" transform="matrix(1,0,0,1,909.3954004544122,803.3333333333333) translate(93.7333950617284 14.222222222222223)"/><use xlink:href="#q" transform="matrix(1,0,0,1,909.3954004544122,803.3333333333333) translate(12.622283950617273 35.55555555555556)"/><use xlink:href="#v" transform="matrix(1,0,0,1,909.3954004544122,803.3333333333333) translate(62.597592592592584 35.55555555555556)"/><use xlink:href="#w" transform="matrix(1,0,0,1,909.3954004544122,803.3333333333333) translate(105.95561728395062 35.55555555555556)"/><path d="M548.32 771.3h-76.64c-.88 0-1.68-.77-1.68-1.7v-47.9c0-.93.8-1.7 1.68-1.7h76.64c.88 0 1.68.77 1.68 1.7v47.9c0 .93-.8 1.7-1.68 1.7zm-74.88-3.4h73.12v-44.5h-73.12z" stroke="#fff" stroke-opacity="0" fill="#326ce5"/><path d="M479.58 728.1h3.4v35.13h-3.4V728.1zM489.15 728.1h3.4v35.13h-3.4V728.1zM498.73 728.1h3.4v35.13h-3.4V728.1zM508.3 728.1h3.4v35.13h-3.4V728.1zM517.88 728.1h3.4v35.13h-3.4V728.1zM527.45 728.1h3.4v35.13h-3.4V728.1zM537.03 728.1h3.4v35.13h-3.4V728.1z" stroke="#fff" stroke-opacity="0" fill="#326ce5"/><g><use xlink:href="#G" transform="matrix(1,0,0,1,440,780.3) translate(43.51851851851852 17.77777777777778)"/></g><path d="M548.32 892.6h-76.64c-.88 0-1.68-.77-1.68-1.7V843c0-.93.8-1.7 1.68-1.7h76.64c.88 0 1.68.77 1.68 1.7v47.9c0 .93-.8 1.7-1.68 1.7zm-74.88-3.4h73.12v-44.5h-73.12z" stroke="#fff" stroke-opacity="0" fill="#326ce5"/><path d="M479.58 849.4h3.4v35.13h-3.4V849.4zM489.15 849.4h3.4v35.13h-3.4V849.4zM498.73 849.4h3.4v35.13h-3.4V849.4zM508.3 849.4h3.4v35.13h-3.4V849.4zM517.88 849.4h3.4v35.13h-3.4V849.4zM527.45 849.4h3.4v35.13h-3.4V849.4zM537.03 849.4h3.4v35.13h-3.4V849.4z" stroke="#fff" stroke-opacity="0" fill="#326ce5"/><g><use xlink:href="#H" transform="matrix(1,0,0,1,440,901.5999999999999) translate(25.586419753086417 17.77777777777778)"/><use xlink:href="#I" transform="matrix(1,0,0,1,440,901.5999999999999) translate(73.73456790123456 17.77777777777778)"/><use xlink:href="#J" transform="matrix(1,0,0,1,440,901.5999999999999) translate(28.734567901234563 44.44444444444444)"/></g><path d="M405.33 636v103.65c0 3.3 2.7 6 6 6h40.17" stroke="#5e5e5e" stroke-width="2" fill="none"/><path d="M406.33 636.03h-2V635h2z" fill="#5e5e5e"/><path d="M466.76 745.65l-14.26 4.64V741z" stroke="#5e5e5e" stroke-width="2" fill="#5e5e5e"/><path d="M405.33 636v224.95c0 3.3 2.7 6 6 6h40.17" stroke="#5e5e5e" stroke-width="2" fill="none"/><path d="M406.33 636.03h-2V635h2z" fill="#5e5e5e"/><path d="M466.76 866.95l-14.26 4.64v-9.3z" stroke="#5e5e5e" stroke-width="2" fill="#5e5e5e"/><defs><path fill="#5a6c86" d="M59-47c-2 24 18 29 38 22v24C64 9 27 4 27-40v-127H5v-23h24l9-43h21v43h35v23H59v120" id="K"/><path fill="#5a6c86" d="M100-194c63 0 86 42 84 106H49c0 40 14 67 53 68 26 1 43-12 49-29l28 8c-11 28-37 45-77 45C44 4 14-33 15-96c1-61 26-98 85-98zm52 81c6-60-76-77-97-28-3 7-6 17-6 28h103" id="L"/><path fill="#5a6c86" d="M135-143c-3-34-86-38-87 0 15 53 115 12 119 90S17 21 10-45l28-5c4 36 97 45 98 0-10-56-113-15-118-90-4-57 82-63 122-42 12 7 21 19 24 35" id="M"/><path fill="#5a6c86" d="M16-82v-28h88v28H16" id="N"/><path fill="#5a6c86" d="M115-194c55 1 70 41 70 98S169 2 115 4C84 4 66-9 55-30l1 105H24l-1-265h31l2 30c10-21 28-34 59-34zm-8 174c40 0 45-34 45-75s-6-73-45-74c-42 0-51 32-51 76 0 43 10 73 51 73" id="O"/><path fill="#5a6c86" d="M100-194c62-1 85 37 85 99 1 63-27 99-86 99S16-35 15-95c0-66 28-99 85-99zM99-20c44 1 53-31 53-75 0-43-8-75-51-75s-53 32-53 75 10 74 51 75" id="P"/><path fill="#5a6c86" d="M85-194c31 0 48 13 60 33l-1-100h32l1 261h-30c-2-10 0-23-3-31C134-8 116 4 85 4 32 4 16-35 15-94c0-66 23-100 70-100zm9 24c-40 0-46 34-46 75 0 40 6 74 45 74 42 0 51-32 51-76 0-42-9-74-50-73" id="Q"/><g id="a"><use transform="matrix(0.05,0,0,0.05,0,0)" xlink:href="#K"/><use transform="matrix(0.05,0,0,0.05,5,0)" xlink:href="#L"/><use transform="matrix(0.05,0,0,0.05,15,0)" xlink:href="#M"/><use transform="matrix(0.05,0,0,0.05,24,0)" xlink:href="#K"/><use transform="matrix(0.05,0,0,0.05,29,0)" xlink:href="#N"/><use transform="matrix(0.05,0,0,0.05,34.95,0)" xlink:href="#O"/><use transform="matrix(0.05,0,0,0.05,44.95,0)" xlink:href="#P"/><use transform="matrix(0.05,0,0,0.05,54.95,0)" xlink:href="#Q"/><use transform="matrix(0.05,0,0,0.05,64.95,0)" xlink:href="#M"/></g><path fill="#5a6c86" d="M190 0L58-211 59 0H30v-248h39L202-35l-2-213h31V0h-41" id="R"/><path fill="#5a6c86" d="M141-36C126-15 110 5 73 4 37 3 15-17 15-53c-1-64 63-63 125-63 3-35-9-54-41-54-24 1-41 7-42 31l-33-3c5-37 33-52 76-52 45 0 72 20 72 64v82c-1 20 7 32 28 27v20c-31 9-61-2-59-35zM48-53c0 20 12 33 32 33 41-3 63-29 60-74-43 2-92-5-92 41" id="S"/><path fill="#5a6c86" d="M210-169c-67 3-38 105-44 169h-31v-121c0-29-5-50-35-48C34-165 62-65 56 0H25l-1-190h30c1 10-1 24 2 32 10-44 99-50 107 0 11-21 27-35 58-36 85-2 47 119 55 194h-31v-121c0-29-5-49-35-48" id="T"/><path fill="#5a6c86" d="M96-169c-40 0-48 33-48 73s9 75 48 75c24 0 41-14 43-38l32 2c-6 37-31 61-74 61-59 0-76-41-82-99-10-93 101-131 147-64 4 7 5 14 7 22l-32 3c-4-21-16-35-41-35" id="U"/><g id="b"><use transform="matrix(0.05,0,0,0.05,0,0)" xlink:href="#R"/><use transform="matrix(0.05,0,0,0.05,12.950000000000001,0)" xlink:href="#S"/><use transform="matrix(0.05,0,0,0.05,22.950000000000003,0)" xlink:href="#T"/><use transform="matrix(0.05,0,0,0.05,37.900000000000006,0)" xlink:href="#L"/><use transform="matrix(0.05,0,0,0.05,47.900000000000006,0)" xlink:href="#M"/><use transform="matrix(0.05,0,0,0.05,56.900000000000006,0)" xlink:href="#O"/><use transform="matrix(0.05,0,0,0.05,66.9,0)" xlink:href="#S"/><use transform="matrix(0.05,0,0,0.05,76.9,0)" xlink:href="#U"/><use transform="matrix(0.05,0,0,0.05,85.9,0)" xlink:href="#L"/></g><path fill="#5a6c86" d="M30-248c87 1 191-15 191 75 0 78-77 80-158 76V0H30v-248zm33 125c57 0 124 11 124-50 0-59-68-47-124-48v98" id="V"/><path fill="#5a6c86" d="M114-163C36-179 61-72 57 0H25l-1-190h30c1 12-1 29 2 39 6-27 23-49 58-41v29" id="W"/><path fill="#5a6c86" d="M206 0h-36l-40-164L89 0H53L-1-190h32L70-26l43-164h34l41 164 42-164h31" id="X"/><g id="c"><use transform="matrix(0.05,0,0,0.05,0,0)" xlink:href="#V"/><use transform="matrix(0.05,0,0,0.05,12,0)" xlink:href="#W"/><use transform="matrix(0.05,0,0,0.05,17.95,0)" xlink:href="#P"/><use transform="matrix(0.05,0,0,0.05,27.950000000000003,0)" xlink:href="#X"/></g><path fill="#5a6c86" d="M153-248C145-148 188 4 80 4 36 3 13-21 6-62l32-5c4 25 16 42 43 43 27 0 39-20 39-49v-147H72v-28h81" id="Y"/><path fill="#5a6c86" d="M115-194c53 0 69 39 70 98 0 66-23 100-70 100C84 3 66-7 56-30L54 0H23l1-261h32v101c10-23 28-34 59-34zm-8 174c40 0 45-34 45-75 0-40-5-75-45-74-42 0-51 32-51 76 0 43 10 73 51 73" id="Z"/><g id="d"><use transform="matrix(0.05,0,0,0.05,0,0)" xlink:href="#Y"/><use transform="matrix(0.05,0,0,0.05,9,0)" xlink:href="#P"/><use transform="matrix(0.05,0,0,0.05,19,0)" xlink:href="#Z"/></g><g id="e"><use transform="matrix(0.05,0,0,0.05,0,0)" xlink:href="#V"/><use transform="matrix(0.05,0,0,0.05,12,0)" xlink:href="#P"/><use transform="matrix(0.05,0,0,0.05,22,0)" xlink:href="#Q"/></g><path fill="#333" d="M115-194c55 1 70 41 70 98S169 2 115 4C84 4 66-9 55-30l1 105H24l-1-265h31l2 30c10-21 28-34 59-34zm-8 174c40 0 45-34 45-75s-6-73-45-74c-42 0-51 32-51 76 0 43 10 73 51 73" id="aa"/><path fill="#333" d="M114-163C36-179 61-72 57 0H25l-1-190h30c1 12-1 29 2 39 6-27 23-49 58-41v29" id="ab"/><path fill="#333" d="M100-194c63 0 86 42 84 106H49c0 40 14 67 53 68 26 1 43-12 49-29l28 8c-11 28-37 45-77 45C44 4 14-33 15-96c1-61 26-98 85-98zm52 81c6-60-76-77-97-28-3 7-6 17-6 28h103" id="ac"/><path fill="#333" d="M16-82v-28h88v28H16" id="ad"/><path fill="#333" d="M135-143c-3-34-86-38-87 0 15 53 115 12 119 90S17 21 10-45l28-5c4 36 97 45 98 0-10-56-113-15-118-90-4-57 82-63 122-42 12 7 21 19 24 35" id="ae"/><path fill="#333" d="M84 4C-5 8 30-112 23-190h32v120c0 31 7 50 39 49 72-2 45-101 50-169h31l1 190h-30c-1-10 1-25-2-33-11 22-28 36-60 37" id="af"/><path fill="#333" d="M115-194c53 0 69 39 70 98 0 66-23 100-70 100C84 3 66-7 56-30L54 0H23l1-261h32v101c10-23 28-34 59-34zm-8 174c40 0 45-34 45-75 0-40-5-75-45-74-42 0-51 32-51 76 0 43 10 73 51 73" id="ag"/><path fill="#333" d="M210-169c-67 3-38 105-44 169h-31v-121c0-29-5-50-35-48C34-165 62-65 56 0H25l-1-190h30c1 10-1 24 2 32 10-44 99-50 107 0 11-21 27-35 58-36 85-2 47 119 55 194h-31v-121c0-29-5-49-35-48" id="ah"/><path fill="#333" d="M24-231v-30h32v30H24zM24 0v-190h32V0H24" id="ai"/><path fill="#333" d="M59-47c-2 24 18 29 38 22v24C64 9 27 4 27-40v-127H5v-23h24l9-43h21v43h35v23H59v120" id="aj"/><path fill="#333" d="M108 0H70L1-190h34L89-25l56-165h34" id="ak"/><path fill="#333" d="M96-169c-40 0-48 33-48 73s9 75 48 75c24 0 41-14 43-38l32 2c-6 37-31 61-74 61-59 0-76-41-82-99-10-93 101-131 147-64 4 7 5 14 7 22l-32 3c-4-21-16-35-41-35" id="al"/><path fill="#333" d="M141-36C126-15 110 5 73 4 37 3 15-17 15-53c-1-64 63-63 125-63 3-35-9-54-41-54-24 1-41 7-42 31l-33-3c5-37 33-52 76-52 45 0 72 20 72 64v82c-1 20 7 32 28 27v20c-31 9-61-2-59-35zM48-53c0 20 12 33 32 33 41-3 63-29 60-74-43 2-92-5-92 41" id="am"/><path fill="#333" d="M100-194c62-1 85 37 85 99 1 63-27 99-86 99S16-35 15-95c0-66 28-99 85-99zM99-20c44 1 53-31 53-75 0-43-8-75-51-75s-53 32-53 75 10 74 51 75" id="an"/><path fill="#333" d="M117-194c89-4 53 116 60 194h-32v-121c0-31-8-49-39-48C34-167 62-67 57 0H25l-1-190h30c1 10-1 24 2 32 11-22 29-35 61-36" id="ao"/><g id="f"><use transform="matrix(0.055555555555555546,0,0,0.055555555555555546,0,0)" xlink:href="#aa"/><use transform="matrix(0.055555555555555546,0,0,0.055555555555555546,11.111111111111109,0)" xlink:href="#ab"/><use transform="matrix(0.055555555555555546,0,0,0.055555555555555546,17.722222222222218,0)" xlink:href="#ac"/><use transform="matrix(0.055555555555555546,0,0,0.055555555555555546,28.83333333333333,0)" xlink:href="#ad"/><use transform="matrix(0.055555555555555546,0,0,0.055555555555555546,35.444444444444436,0)" xlink:href="#ae"/><use transform="matrix(0.055555555555555546,0,0,0.055555555555555546,45.444444444444436,0)" xlink:href="#af"/><use transform="matrix(0.055555555555555546,0,0,0.055555555555555546,56.55555555555554,0)" xlink:href="#ag"/><use transform="matrix(0.055555555555555546,0,0,0.055555555555555546,67.66666666666666,0)" xlink:href="#ah"/><use transform="matrix(0.055555555555555546,0,0,0.055555555555555546,84.27777777777777,0)" xlink:href="#ai"/><use transform="matrix(0.055555555555555546,0,0,0.055555555555555546,88.66666666666666,0)" xlink:href="#aj"/><use transform="matrix(0.055555555555555546,0,0,0.055555555555555546,94.22222222222221,0)" xlink:href="#ad"/><use transform="matrix(0.055555555555555546,0,0,0.055555555555555546,100.83333333333333,0)" xlink:href="#ae"/><use transform="matrix(0.055555555555555546,0,0,0.055555555555555546,110.83333333333333,0)" xlink:href="#ac"/><use transform="matrix(0.055555555555555546,0,0,0.055555555555555546,121.94444444444444,0)" xlink:href="#ab"/><use transform="matrix(0.055555555555555546,0,0,0.055555555555555546,128.55555555555554,0)" xlink:href="#ak"/><use transform="matrix(0.055555555555555546,0,0,0.055555555555555546,138.55555555555554,0)" xlink:href="#ai"/><use transform="matrix(0.055555555555555546,0,0,0.055555555555555546,142.94444444444443,0)" xlink:href="#al"/><use transform="matrix(0.055555555555555546,0,0,0.055555555555555546,152.94444444444443,0)" xlink:href="#ac"/><use transform="matrix(0.055555555555555546,0,0,0.055555555555555546,164.05555555555554,0)" xlink:href="#ad"/><use transform="matrix(0.055555555555555546,0,0,0.055555555555555546,170.66666666666666,0)" xlink:href="#am"/><use transform="matrix(0.055555555555555546,0,0,0.055555555555555546,181.77777777777777,0)" xlink:href="#al"/><use transform="matrix(0.055555555555555546,0,0,0.055555555555555546,191.77777777777777,0)" xlink:href="#al"/><use transform="matrix(0.055555555555555546,0,0,0.055555555555555546,201.77777777777777,0)" xlink:href="#an"/><use transform="matrix(0.055555555555555546,0,0,0.055555555555555546,212.88888888888889,0)" xlink:href="#af"/><use transform="matrix(0.055555555555555546,0,0,0.055555555555555546,224,0)" xlink:href="#ao"/><use transform="matrix(0.055555555555555546,0,0,0.055555555555555546,235.11111111111111,0)" xlink:href="#aj"/></g><path fill="#232f3e" d="M205 0l-28-72H64L36 0H1l101-248h38L239 0h-34zm-38-99l-47-123c-12 45-31 82-46 123h93" id="ap"/><path fill="#232f3e" d="M212-179c-10-28-35-45-73-45-59 0-87 40-87 99 0 60 29 101 89 101 43 0 62-24 78-52l27 14C228-24 195 4 139 4 59 4 22-46 18-125c-6-104 99-153 187-111 19 9 31 26 39 46" id="aq"/><path fill="#232f3e" d="M194 0L95-120 63-95V0H30v-248h33v124l119-124h40L117-140 236 0h-42" id="ar"/><g id="g"><use transform="matrix(0.05,0,0,0.05,0,0)" xlink:href="#ap"/><use transform="matrix(0.05,0,0,0.05,12,0)" xlink:href="#aq"/><use transform="matrix(0.05,0,0,0.05,24.950000000000003,0)" xlink:href="#ar"/></g><path fill="#232f3e" d="M33 0v-248h34V0H33" id="as"/><path fill="#232f3e" d="M117-194c89-4 53 116 60 194h-32v-121c0-31-8-49-39-48C34-167 62-67 57 0H25l-1-190h30c1 10-1 24 2 32 11-22 29-35 61-36" id="at"/><path fill="#232f3e" d="M101-234c-31-9-42 10-38 44h38v23H63V0H32v-167H5v-23h27c-7-52 17-82 69-68v24" id="au"/><path fill="#232f3e" d="M114-163C36-179 61-72 57 0H25l-1-190h30c1 12-1 29 2 39 6-27 23-49 58-41v29" id="av"/><path fill="#232f3e" d="M141-36C126-15 110 5 73 4 37 3 15-17 15-53c-1-64 63-63 125-63 3-35-9-54-41-54-24 1-41 7-42 31l-33-3c5-37 33-52 76-52 45 0 72 20 72 64v82c-1 20 7 32 28 27v20c-31 9-61-2-59-35zM48-53c0 20 12 33 32 33 41-3 63-29 60-74-43 2-92-5-92 41" id="aw"/><path fill="#232f3e" d="M135-143c-3-34-86-38-87 0 15 53 115 12 119 90S17 21 10-45l28-5c4 36 97 45 98 0-10-56-113-15-118-90-4-57 82-63 122-42 12 7 21 19 24 35" id="ax"/><path fill="#232f3e" d="M59-47c-2 24 18 29 38 22v24C64 9 27 4 27-40v-127H5v-23h24l9-43h21v43h35v23H59v120" id="ay"/><path fill="#232f3e" d="M84 4C-5 8 30-112 23-190h32v120c0 31 7 50 39 49 72-2 45-101 50-169h31l1 190h-30c-1-10 1-25-2-33-11 22-28 36-60 37" id="az"/><path fill="#232f3e" d="M96-169c-40 0-48 33-48 73s9 75 48 75c24 0 41-14 43-38l32 2c-6 37-31 61-74 61-59 0-76-41-82-99-10-93 101-131 147-64 4 7 5 14 7 22l-32 3c-4-21-16-35-41-35" id="aA"/><path fill="#232f3e" d="M100-194c63 0 86 42 84 106H49c0 40 14 67 53 68 26 1 43-12 49-29l28 8c-11 28-37 45-77 45C44 4 14-33 15-96c1-61 26-98 85-98zm52 81c6-60-76-77-97-28-3 7-6 17-6 28h103" id="aB"/><g id="h"><use transform="matrix(0.05,0,0,0.05,0,0)" xlink:href="#as"/><use transform="matrix(0.05,0,0,0.05,5,0)" xlink:href="#at"/><use transform="matrix(0.05,0,0,0.05,15,0)" xlink:href="#au"/><use transform="matrix(0.05,0,0,0.05,20,0)" xlink:href="#av"/><use transform="matrix(0.05,0,0,0.05,25.950000000000003,0)" xlink:href="#aw"/><use transform="matrix(0.05,0,0,0.05,35.95,0)" xlink:href="#ax"/><use transform="matrix(0.05,0,0,0.05,44.95,0)" xlink:href="#ay"/><use transform="matrix(0.05,0,0,0.05,49.95,0)" xlink:href="#av"/><use transform="matrix(0.05,0,0,0.05,55.900000000000006,0)" xlink:href="#az"/><use transform="matrix(0.05,0,0,0.05,65.9,0)" xlink:href="#aA"/><use transform="matrix(0.05,0,0,0.05,74.9,0)" xlink:href="#ay"/><use transform="matrix(0.05,0,0,0.05,79.9,0)" xlink:href="#az"/><use transform="matrix(0.05,0,0,0.05,89.9,0)" xlink:href="#av"/><use transform="matrix(0.05,0,0,0.05,95.85000000000001,0)" xlink:href="#aB"/></g><path fill="#232f3e" d="M100-194c62-1 85 37 85 99 1 63-27 99-86 99S16-35 15-95c0-66 28-99 85-99zM99-20c44 1 53-31 53-75 0-43-8-75-51-75s-53 32-53 75 10 74 51 75" id="aC"/><g id="i"><use transform="matrix(0.05,0,0,0.05,0,0)" xlink:href="#ap"/><use transform="matrix(0.05,0,0,0.05,12,0)" xlink:href="#aA"/><use transform="matrix(0.05,0,0,0.05,21,0)" xlink:href="#aA"/><use transform="matrix(0.05,0,0,0.05,30,0)" xlink:href="#aC"/><use transform="matrix(0.05,0,0,0.05,40,0)" xlink:href="#az"/><use transform="matrix(0.05,0,0,0.05,50,0)" xlink:href="#at"/><use transform="matrix(0.05,0,0,0.05,60,0)" xlink:href="#ay"/></g><path fill="#333" d="M30-248c87 1 191-15 191 75 0 78-77 80-158 76V0H30v-248zm33 125c57 0 124 11 124-50 0-59-68-47-124-48v98" id="aD"/><path fill="#333" d="M185-189c-5-48-123-54-124 2 14 75 158 14 163 119 3 78-121 87-175 55-17-10-28-26-33-46l33-7c5 56 141 63 141-1 0-78-155-14-162-118-5-82 145-84 179-34 5 7 8 16 11 25" id="aE"/><path fill="#333" d="M205 0l-28-72H64L36 0H1l101-248h38L239 0h-34zm-38-99l-47-123c-12 45-31 82-46 123h93" id="aF"/><path fill="#333" d="M233-177c-1 41-23 64-60 70L243 0h-38l-65-103H63V0H30v-248c88 3 205-21 203 71zM63-129c60-2 137 13 137-47 0-61-80-42-137-45v92" id="aG"/><path fill="#333" d="M24 0v-261h32V0H24" id="aH"/><g id="j"><use transform="matrix(0.055555555555555546,0,0,0.055555555555555546,0,0)" xlink:href="#aD"/><use transform="matrix(0.055555555555555546,0,0,0.055555555555555546,13.33333333333333,0)" xlink:href="#ab"/><use transform="matrix(0.055555555555555546,0,0,0.055555555555555546,19.94444444444444,0)" xlink:href="#ac"/><use transform="matrix(0.055555555555555546,0,0,0.055555555555555546,31.05555555555555,0)" xlink:href="#aE"/><use transform="matrix(0.055555555555555546,0,0,0.055555555555555546,44.38888888888888,0)" xlink:href="#af"/><use transform="matrix(0.055555555555555546,0,0,0.055555555555555546,55.499999999999986,0)" xlink:href="#ag"/><use transform="matrix(0.055555555555555546,0,0,0.055555555555555546,66.6111111111111,0)" xlink:href="#ah"/><use transform="matrix(0.055555555555555546,0,0,0.055555555555555546,83.2222222222222,0)" xlink:href="#ai"/><use transform="matrix(0.055555555555555546,0,0,0.055555555555555546,87.61111111111109,0)" xlink:href="#aj"/><use transform="matrix(0.055555555555555546,0,0,0.055555555555555546,93.16666666666664,0)" xlink:href="#aE"/><use transform="matrix(0.055555555555555546,0,0,0.055555555555555546,106.49999999999997,0)" xlink:href="#ac"/><use transform="matrix(0.055555555555555546,0,0,0.055555555555555546,117.61111111111109,0)" xlink:href="#ab"/><use transform="matrix(0.055555555555555546,0,0,0.055555555555555546,124.2222222222222,0)" xlink:href="#ak"/><use transform="matrix(0.055555555555555546,0,0,0.055555555555555546,134.2222222222222,0)" xlink:href="#ai"/><use transform="matrix(0.055555555555555546,0,0,0.055555555555555546,138.6111111111111,0)" xlink:href="#al"/><use transform="matrix(0.055555555555555546,0,0,0.055555555555555546,148.6111111111111,0)" xlink:href="#ac"/><use transform="matrix(0.055555555555555546,0,0,0.055555555555555546,159.7222222222222,0)" xlink:href="#aF"/><use transform="matrix(0.055555555555555546,0,0,0.055555555555555546,173.05555555555554,0)" xlink:href="#al"/><use transform="matrix(0.055555555555555546,0,0,0.055555555555555546,183.05555555555554,0)" xlink:href="#al"/><use transform="matrix(0.055555555555555546,0,0,0.055555555555555546,193.05555555555554,0)" xlink:href="#an"/><use transform="matrix(0.055555555555555546,0,0,0.055555555555555546,204.16666666666666,0)" xlink:href="#af"/><use transform="matrix(0.055555555555555546,0,0,0.055555555555555546,215.27777777777777,0)" xlink:href="#ao"/><use transform="matrix(0.055555555555555546,0,0,0.055555555555555546,226.38888888888889,0)" xlink:href="#aj"/><use transform="matrix(0.055555555555555546,0,0,0.055555555555555546,231.94444444444446,0)" xlink:href="#aG"/><use transform="matrix(0.055555555555555546,0,0,0.055555555555555546,246.33333333333334,0)" xlink:href="#an"/><use transform="matrix(0.055555555555555546,0,0,0.055555555555555546,257.4444444444444,0)" xlink:href="#aH"/><use transform="matrix(0.055555555555555546,0,0,0.055555555555555546,261.8333333333333,0)" xlink:href="#ac"/></g><path fill="#333" d="M23 0v-37h61v-169l-59 37v-38l62-41h46v211h57V0H23" id="aI"/><path fill="#333" d="M24 0v-54h51V0H24" id="aJ"/><g id="k"><use transform="matrix(0.04938271604938272,0,0,0.04938271604938272,0,0)" xlink:href="#aI"/><use transform="matrix(0.04938271604938272,0,0,0.04938271604938272,9.876543209876544,0)" xlink:href="#aJ"/></g><path fill="#333" d="M24 0v-248h52V0H24" id="aK"/><path fill="#333" d="M240-174c0 40-23 61-54 70L253 0h-59l-57-94H76V0H24v-248c93 4 217-23 216 74zM76-134c48-2 112 12 112-38 0-48-66-32-112-35v73" id="aL"/><path fill="#333" d="M169-182c-1-43-94-46-97-3 18 66 151 10 154 114 3 95-165 93-204 36-6-8-10-19-12-30l50-8c3 46 112 56 116 5-17-69-150-10-154-114-4-87 153-88 188-35 5 8 8 18 10 28" id="aM"/><path fill="#333" d="M199 0l-22-63H83L61 0H9l90-248h61L250 0h-51zm-33-102l-36-108c-10 38-24 72-36 108h72" id="aN"/><g id="l"><use transform="matrix(0.04938271604938272,0,0,0.04938271604938272,0,0)" xlink:href="#aK"/><use transform="matrix(0.04938271604938272,0,0,0.04938271604938272,4.938271604938272,0)" xlink:href="#aL"/><use transform="matrix(0.04938271604938272,0,0,0.04938271604938272,17.7283950617284,0)" xlink:href="#aM"/><use transform="matrix(0.04938271604938272,0,0,0.04938271604938272,29.580246913580254,0)" xlink:href="#aN"/></g><path fill="#333" d="M127-220V0H93v-220H8v-28h204v28h-85" id="aO"/><g id="m"><use transform="matrix(0.055555555555555546,0,0,0.055555555555555546,0,0)" xlink:href="#aE"/><use transform="matrix(0.055555555555555546,0,0,0.055555555555555546,13.33333333333333,0)" xlink:href="#ac"/><use transform="matrix(0.055555555555555546,0,0,0.055555555555555546,24.44444444444444,0)" xlink:href="#ab"/><use transform="matrix(0.055555555555555546,0,0,0.055555555555555546,31.05555555555555,0)" xlink:href="#ak"/><use transform="matrix(0.055555555555555546,0,0,0.055555555555555546,41.05555555555555,0)" xlink:href="#ai"/><use transform="matrix(0.055555555555555546,0,0,0.055555555555555546,45.444444444444436,0)" xlink:href="#al"/><use transform="matrix(0.055555555555555546,0,0,0.055555555555555546,55.444444444444436,0)" xlink:href="#ac"/><use transform="matrix(0.055555555555555546,0,0,0.055555555555555546,66.55555555555554,0)" xlink:href="#aO"/><use transform="matrix(0.055555555555555546,0,0,0.055555555555555546,76.49999999999997,0)" xlink:href="#ac"/><use transform="matrix(0.055555555555555546,0,0,0.055555555555555546,87.61111111111109,0)" xlink:href="#am"/><use transform="matrix(0.055555555555555546,0,0,0.055555555555555546,98.7222222222222,0)" xlink:href="#ah"/><use transform="matrix(0.055555555555555546,0,0,0.055555555555555546,115.33333333333331,0)" xlink:href="#aO"/><use transform="matrix(0.055555555555555546,0,0,0.055555555555555546,125.27777777777776,0)" xlink:href="#ac"/><use transform="matrix(0.055555555555555546,0,0,0.055555555555555546,136.38888888888886,0)" xlink:href="#ae"/><use transform="matrix(0.055555555555555546,0,0,0.055555555555555546,146.38888888888886,0)" xlink:href="#aj"/><use transform="matrix(0.055555555555555546,0,0,0.055555555555555546,151.9444444444444,0)" xlink:href="#aG"/><use transform="matrix(0.055555555555555546,0,0,0.055555555555555546,166.3333333333333,0)" xlink:href="#an"/><use transform="matrix(0.055555555555555546,0,0,0.055555555555555546,177.4444444444444,0)" xlink:href="#aH"/><use transform="matrix(0.055555555555555546,0,0,0.055555555555555546,181.8333333333333,0)" xlink:href="#ac"/><use transform="matrix(0.055555555555555546,0,0,0.055555555555555546,192.9444444444444,0)" xlink:href="#ae"/></g><path fill="#333" d="M182-182c0 78-84 86-111 141h115V0H12c-6-101 99-100 120-180 1-22-12-31-33-32-23 0-32 14-35 34l-49-3c5-45 32-70 84-70 51 0 83 22 83 69" id="aP"/><g id="n"><use transform="matrix(0.04938271604938272,0,0,0.04938271604938272,0,0)" xlink:href="#aP"/><use transform="matrix(0.04938271604938272,0,0,0.04938271604938272,9.876543209876544,0)" xlink:href="#aJ"/></g><path fill="#333" d="M24 0v-248h52v208h133V0H24" id="aQ"/><path fill="#333" d="M110-194c64 0 96 36 96 99 0 64-35 99-97 99-61 0-95-36-95-99 0-62 34-99 96-99zm-1 164c35 0 45-28 45-65 0-40-10-65-43-65-34 0-45 26-45 65 0 36 10 65 43 65" id="aR"/><path fill="#333" d="M147 0L96-86 75-71V0H25v-261h50v150l67-79h53l-66 74L201 0h-54" id="aS"/><path fill="#333" d="M85 4C-2 5 27-109 22-190h50c7 57-23 150 33 157 60-5 35-97 40-157h50l1 190h-47c-2-12 1-28-3-38-12 25-28 42-61 42" id="aT"/><path fill="#333" d="M135-194c53 0 70 44 70 98 0 56-19 98-73 100-31 1-45-17-59-34 3 33 2 69 2 105H25l-1-265h48c2 10 0 23 3 31 11-24 29-35 60-35zM114-30c33 0 39-31 40-66 0-38-9-64-40-64-56 0-55 130 0 130" id="aU"/><g id="o"><use transform="matrix(0.04938271604938272,0,0,0.04938271604938272,0,0)" xlink:href="#aQ"/><use transform="matrix(0.04938271604938272,0,0,0.04938271604938272,10.814814814814815,0)" xlink:href="#aR"/><use transform="matrix(0.04938271604938272,0,0,0.04938271604938272,21.62962962962963,0)" xlink:href="#aR"/><use transform="matrix(0.04938271604938272,0,0,0.04938271604938272,32.44444444444444,0)" xlink:href="#aS"/><use transform="matrix(0.04938271604938272,0,0,0.04938271604938272,42.32098765432099,0)" xlink:href="#aT"/><use transform="matrix(0.04938271604938272,0,0,0.04938271604938272,53.135802469135804,0)" xlink:href="#aU"/></g><path fill="#333" d="M185-48c-13 30-37 53-82 52C43 2 14-33 14-96s30-98 90-98c62 0 83 45 84 108H66c0 31 8 55 39 56 18 0 30-7 34-22zm-45-69c5-46-57-63-70-21-2 6-4 13-4 21h74" id="aV"/><path fill="#333" d="M135-150c-39-12-60 13-60 57V0H25l-1-190h47c2 13-1 29 3 40 6-28 27-53 61-41v41" id="aW"/><path fill="#333" d="M128 0H69L1-190h53L99-40l48-150h52" id="aX"/><path fill="#333" d="M25-224v-37h50v37H25zM25 0v-190h50V0H25" id="aY"/><path fill="#333" d="M190-63c-7 42-38 67-86 67-59 0-84-38-90-98-12-110 154-137 174-36l-49 2c-2-19-15-32-35-32-30 0-35 28-38 64-6 74 65 87 74 30" id="aZ"/><g id="p"><use transform="matrix(0.04938271604938272,0,0,0.04938271604938272,0,0)" xlink:href="#aM"/><use transform="matrix(0.04938271604938272,0,0,0.04938271604938272,11.851851851851853,0)" xlink:href="#aV"/><use transform="matrix(0.04938271604938272,0,0,0.04938271604938272,21.7283950617284,0)" xlink:href="#aW"/><use transform="matrix(0.04938271604938272,0,0,0.04938271604938272,28.64197530864198,0)" xlink:href="#aX"/><use transform="matrix(0.04938271604938272,0,0,0.04938271604938272,38.518518518518526,0)" xlink:href="#aY"/><use transform="matrix(0.04938271604938272,0,0,0.04938271604938272,43.4567901234568,0)" xlink:href="#aZ"/><use transform="matrix(0.04938271604938272,0,0,0.04938271604938272,53.333333333333336,0)" xlink:href="#aV"/></g><path fill="#333" d="M136-208V0H84v-208H4v-40h212v40h-80" id="ba"/><path fill="#333" d="M133-34C117-15 103 5 69 4 32 3 11-16 11-54c-1-60 55-63 116-61 1-26-3-47-28-47-18 1-26 9-28 27l-52-2c7-38 36-58 82-57s74 22 75 68l1 82c-1 14 12 18 25 15v27c-30 8-71 5-69-32zm-48 3c29 0 43-24 42-57-32 0-66-3-65 30 0 17 8 27 23 27" id="bb"/><path fill="#333" d="M220-157c-53 9-28 100-34 157h-49v-107c1-27-5-49-29-50C55-147 81-57 75 0H25l-1-190h47c2 12-1 28 3 38 10-53 101-56 108 0 13-22 24-43 59-42 82 1 51 116 57 194h-49v-107c-1-25-5-48-29-50" id="bc"/><g id="q"><use transform="matrix(0.04938271604938272,0,0,0.04938271604938272,0,0)" xlink:href="#ba"/><use transform="matrix(0.04938271604938272,0,0,0.04938271604938272,9.481481481481481,0)" xlink:href="#aV"/><use transform="matrix(0.04938271604938272,0,0,0.04938271604938272,19.358024691358025,0)" xlink:href="#bb"/><use transform="matrix(0.04938271604938272,0,0,0.04938271604938272,29.23456790123457,0)" xlink:href="#bc"/></g><path fill="#333" d="M25 0v-261h50V0H25" id="bd"/><g id="r"><use transform="matrix(0.04938271604938272,0,0,0.04938271604938272,0,0)" xlink:href="#aL"/><use transform="matrix(0.04938271604938272,0,0,0.04938271604938272,12.790123456790125,0)" xlink:href="#aR"/><use transform="matrix(0.04938271604938272,0,0,0.04938271604938272,23.60493827160494,0)" xlink:href="#bd"/><use transform="matrix(0.04938271604938272,0,0,0.04938271604938272,28.543209876543212,0)" xlink:href="#aV"/></g><path fill="#333" d="M558-647c-214-53-428-110-428-376 0-239 192-311 428-323v-130h128v130c251 5 384 114 433 321l-174 33c-27-133-107-212-259-221v426c233 57 464 118 464 407 0 258-203 345-464 360v161H558V-20C281-27 115-149 66-379l170-37c31 161 136 250 322 258v-489zm0-568c-146 8-256 54-256 197 0 156 132 181 256 216v-413zM686-156c160-12 292-63 292-227 0-177-151-205-292-244v471" id="be"/><path fill="#333" d="M1034 0L896-382H333L196 0H0l510-1349h217L1228 0h-194zM847-531c-77-225-157-447-231-674-69 231-154 451-232 674h463" id="bf"/><path fill="#333" d="M650-1214c-281 0-336 244-336 533 0 295 60 546 347 546 188 0 263-142 322-282l159 65C1058-155 935 20 659 20c-401 0-546-295-546-701 0-407 135-689 536-689 264 0 391 146 466 335l-168 65c-47-129-127-244-297-244" id="bg"/><path fill="#333" d="M1003 0L516-638 353-469V0H162v-1349h191v673l572-673h225L646-777 1227 0h-224" id="bh"/><path fill="#333" d="M-5 220v-96h1238v96H-5" id="bi"/><path fill="#333" d="M709-1193V0H519v-1193H76v-156h1076v156H709" id="bj"/><path fill="#333" d="M162 0v-1349h919v156H353v422h668v154H353v461h769V0H162" id="bk"/><path fill="#333" d="M614-1226c-167 1-283 53-283 213 0 183 186 193 334 234 230 63 463 120 463 409 0 286-219 387-518 390C309 23 131-98 79-338l185-37c34 165 149 248 351 246 184-2 324-58 324-238 0-203-207-221-372-266-210-57-422-111-422-377 0-267 201-356 470-360 279-5 430 101 480 324l-188 33c-28-141-121-215-293-213" id="bl"/><path fill="#333" d="M1121-976c0 225-142 341-344 379L1177 0H957L591-575H353V0H162v-1349h482c281 3 477 100 477 373zM633-726c181-1 296-73 296-247 0-149-101-223-304-223H353v470h280" id="bm"/><path fill="#333" d="M102-681c0-398 126-689 513-689 165 0 291 58 379 174s132 287 132 515c-1 318-88 554-298 657-123 61-317 58-438-3-206-104-288-341-288-654zm749 406c94-160 97-656-5-807-57-85-130-132-231-132-104 0-178 47-234 132-101 153-99 655 1 809 57 89 130 138 232 138 109 0 184-49 237-140" id="bn"/><path fill="#333" d="M237 0v-1349h191v1193h672V0H237" id="bo"/><g id="s"><use transform="matrix(0.010850694444444444,0,0,0.010850694444444444,0,0)" xlink:href="#be"/><use transform="matrix(0.010850694444444444,0,0,0.010850694444444444,13.335503472222221,0)" xlink:href="#bf"/><use transform="matrix(0.010850694444444444,0,0,0.010850694444444444,26.671006944444443,0)" xlink:href="#bg"/><use transform="matrix(0.010850694444444444,0,0,0.010850694444444444,40.006510416666664,0)" xlink:href="#bh"/><use transform="matrix(0.010850694444444444,0,0,0.010850694444444444,53.342013888888886,0)" xlink:href="#bi"/><use transform="matrix(0.010850694444444444,0,0,0.010850694444444444,66.67751736111111,0)" xlink:href="#bj"/><use transform="matrix(0.010850694444444444,0,0,0.010850694444444444,80.01302083333334,0)" xlink:href="#bk"/><use transform="matrix(0.010850694444444444,0,0,0.010850694444444444,93.34852430555557,0)" xlink:href="#bl"/><use transform="matrix(0.010850694444444444,0,0,0.010850694444444444,106.6840277777778,0)" xlink:href="#bj"/><use transform="matrix(0.010850694444444444,0,0,0.010850694444444444,120.01953125000003,0)" xlink:href="#bi"/><use transform="matrix(0.010850694444444444,0,0,0.010850694444444444,133.35503472222226,0)" xlink:href="#bm"/><use transform="matrix(0.010850694444444444,0,0,0.010850694444444444,146.69053819444449,0)" xlink:href="#bn"/><use transform="matrix(0.010850694444444444,0,0,0.010850694444444444,160.0260416666667,0)" xlink:href="#bo"/><use transform="matrix(0.010850694444444444,0,0,0.010850694444444444,173.36154513888894,0)" xlink:href="#bk"/></g><path fill="#333" d="M128-127c34 4 56 21 59 58 7 91-148 94-172 28-4-9-6-17-7-26l51-5c1 24 16 35 40 36 23 0 39-12 38-36-1-31-31-36-65-34v-40c32 2 59-3 59-33 0-20-13-33-34-33s-33 13-35 32l-50-3c6-44 37-68 86-68 50 0 83 20 83 66 0 35-22 52-53 58" id="bp"/><g id="t"><use transform="matrix(0.04938271604938272,0,0,0.04938271604938272,0,0)" xlink:href="#bp"/><use transform="matrix(0.04938271604938272,0,0,0.04938271604938272,9.876543209876544,0)" xlink:href="#aJ"/></g><path fill="#333" d="M115-3C79 11 28 4 28-45v-112H4v-33h27l15-45h31v45h36v33H77v99c-1 23 16 31 38 25v30" id="bq"/><path fill="#333" d="M135-194c87-1 58 113 63 194h-50c-7-57 23-157-34-157-59 0-34 97-39 157H25l-1-190h47c2 12-1 28 3 38 12-26 28-41 61-42" id="br"/><g id="u"><use transform="matrix(0.04938271604938272,0,0,0.04938271604938272,0,0)" xlink:href="#aL"/><use transform="matrix(0.04938271604938272,0,0,0.04938271604938272,12.790123456790125,0)" xlink:href="#aV"/><use transform="matrix(0.04938271604938272,0,0,0.04938271604938272,22.66666666666667,0)" xlink:href="#bq"/><use transform="matrix(0.04938271604938272,0,0,0.04938271604938272,28.54320987654322,0)" xlink:href="#aT"/><use transform="matrix(0.04938271604938272,0,0,0.04938271604938272,39.35802469135803,0)" xlink:href="#aW"/><use transform="matrix(0.04938271604938272,0,0,0.04938271604938272,46.271604938271615,0)" xlink:href="#br"/></g><g id="v"><use transform="matrix(0.04938271604938272,0,0,0.04938271604938272,0,0)" xlink:href="#aL"/><use transform="matrix(0.04938271604938272,0,0,0.04938271604938272,12.790123456790125,0)" xlink:href="#aR"/><use transform="matrix(0.04938271604938272,0,0,0.04938271604938272,23.60493827160494,0)" xlink:href="#bd"/><use transform="matrix(0.04938271604938272,0,0,0.04938271604938272,28.543209876543212,0)" xlink:href="#aV"/></g><path fill="#333" d="M175 0L67-191c6 58 2 128 3 191H24v-248h59L193-55c-6-58-2-129-3-193h46V0h-61" id="bs"/><g id="w"><use transform="matrix(0.04938271604938272,0,0,0.04938271604938272,0,0)" xlink:href="#aN"/><use transform="matrix(0.04938271604938272,0,0,0.04938271604938272,12.790123456790125,0)" xlink:href="#aL"/><use transform="matrix(0.04938271604938272,0,0,0.04938271604938272,25.58024691358025,0)" xlink:href="#bs"/></g><path fill="#232f3e" d="M185-189c-5-48-123-54-124 2 14 75 158 14 163 119 3 78-121 87-175 55-17-10-28-26-33-46l33-7c5 56 141 63 141-1 0-78-155-14-162-118-5-82 145-84 179-34 5 7 8 16 11 25" id="bt"/><path fill="#232f3e" d="M108 0H70L1-190h34L89-25l56-165h34" id="bu"/><path fill="#232f3e" d="M24-231v-30h32v30H24zM24 0v-190h32V0H24" id="bv"/><g id="x"><use transform="matrix(0.05,0,0,0.05,0,0)" xlink:href="#bt"/><use transform="matrix(0.05,0,0,0.05,12,0)" xlink:href="#aB"/><use transform="matrix(0.05,0,0,0.05,22,0)" xlink:href="#av"/><use transform="matrix(0.05,0,0,0.05,27.950000000000003,0)" xlink:href="#bu"/><use transform="matrix(0.05,0,0,0.05,36.95,0)" xlink:href="#bv"/><use transform="matrix(0.05,0,0,0.05,40.900000000000006,0)" xlink:href="#aA"/><use transform="matrix(0.05,0,0,0.05,49.900000000000006,0)" xlink:href="#aB"/></g><path fill="#232f3e" d="M127-220V0H93v-220H8v-28h204v28h-85" id="bw"/><path fill="#232f3e" d="M210-169c-67 3-38 105-44 169h-31v-121c0-29-5-50-35-48C34-165 62-65 56 0H25l-1-190h30c1 10-1 24 2 32 10-44 99-50 107 0 11-21 27-35 58-36 85-2 47 119 55 194h-31v-121c0-29-5-49-35-48" id="bx"/><g id="y"><use transform="matrix(0.05,0,0,0.05,0,0)" xlink:href="#bw"/><use transform="matrix(0.05,0,0,0.05,8.950000000000001,0)" xlink:href="#aB"/><use transform="matrix(0.05,0,0,0.05,18.950000000000003,0)" xlink:href="#aw"/><use transform="matrix(0.05,0,0,0.05,28.950000000000003,0)" xlink:href="#bx"/></g><path fill="#232f3e" d="M233-177c-1 41-23 64-60 70L243 0h-38l-65-103H63V0H30v-248c88 3 205-21 203 71zM63-129c60-2 137 13 137-47 0-61-80-42-137-45v92" id="by"/><g id="z"><use transform="matrix(0.05,0,0,0.05,0,0)" xlink:href="#by"/><use transform="matrix(0.05,0,0,0.05,12.950000000000001,0)" xlink:href="#aB"/><use transform="matrix(0.05,0,0,0.05,22.950000000000003,0)" xlink:href="#ax"/><use transform="matrix(0.05,0,0,0.05,31.950000000000003,0)" xlink:href="#aC"/><use transform="matrix(0.05,0,0,0.05,41.95,0)" xlink:href="#az"/><use transform="matrix(0.05,0,0,0.05,51.95,0)" xlink:href="#av"/><use transform="matrix(0.05,0,0,0.05,57.900000000000006,0)" xlink:href="#aA"/><use transform="matrix(0.05,0,0,0.05,66.9,0)" xlink:href="#aB"/></g><path fill="#333" d="M212-179c-10-28-35-45-73-45-59 0-87 40-87 99 0 60 29 101 89 101 43 0 62-24 78-52l27 14C228-24 195 4 139 4 59 4 22-46 18-125c-6-104 99-153 187-111 19 9 31 26 39 46" id="bz"/><path fill="#333" d="M194 0L95-120 63-95V0H30v-248h33v124l119-124h40L117-140 236 0h-42" id="bA"/><g id="A"><use transform="matrix(0.055555555555555546,0,0,0.055555555555555546,0,0)" xlink:href="#aF"/><use transform="matrix(0.055555555555555546,0,0,0.055555555555555546,13.33333333333333,0)" xlink:href="#bz"/><use transform="matrix(0.055555555555555546,0,0,0.055555555555555546,27.722222222222214,0)" xlink:href="#bA"/></g><g id="B"><use transform="matrix(0.055555555555555546,0,0,0.055555555555555546,0,0)" xlink:href="#aE"/><use transform="matrix(0.055555555555555546,0,0,0.055555555555555546,13.33333333333333,0)" xlink:href="#ac"/><use transform="matrix(0.055555555555555546,0,0,0.055555555555555546,24.44444444444444,0)" xlink:href="#ab"/><use transform="matrix(0.055555555555555546,0,0,0.055555555555555546,31.05555555555555,0)" xlink:href="#ak"/><use transform="matrix(0.055555555555555546,0,0,0.055555555555555546,41.05555555555555,0)" xlink:href="#ai"/><use transform="matrix(0.055555555555555546,0,0,0.055555555555555546,45.444444444444436,0)" xlink:href="#al"/><use transform="matrix(0.055555555555555546,0,0,0.055555555555555546,55.444444444444436,0)" xlink:href="#ac"/></g><g id="C"><use transform="matrix(0.055555555555555546,0,0,0.055555555555555546,0,0)" xlink:href="#aO"/><use transform="matrix(0.055555555555555546,0,0,0.055555555555555546,9.944444444444443,0)" xlink:href="#ac"/><use transform="matrix(0.055555555555555546,0,0,0.055555555555555546,21.05555555555555,0)" xlink:href="#am"/><use transform="matrix(0.055555555555555546,0,0,0.055555555555555546,32.16666666666666,0)" xlink:href="#ah"/></g><g id="D"><use transform="matrix(0.055555555555555546,0,0,0.055555555555555546,0,0)" xlink:href="#aG"/><use transform="matrix(0.055555555555555546,0,0,0.055555555555555546,14.388888888888886,0)" xlink:href="#an"/><use transform="matrix(0.055555555555555546,0,0,0.055555555555555546,25.499999999999993,0)" xlink:href="#aH"/><use transform="matrix(0.055555555555555546,0,0,0.055555555555555546,29.888888888888882,0)" xlink:href="#ac"/></g><path fill="#333" d="M165-50V0h-47v-50H5v-38l105-160h55v161h33v37h-33zm-47-37l2-116L46-87h72" id="bB"/><g id="E"><use transform="matrix(0.04938271604938272,0,0,0.04938271604938272,0,0)" xlink:href="#bB"/><use transform="matrix(0.04938271604938272,0,0,0.04938271604938272,9.876543209876544,0)" xlink:href="#aJ"/></g><path fill="#333" d="M137-138c1-29-70-34-71-4 15 46 118 7 119 86 1 83-164 76-172 9l43-7c4 19 20 25 44 25 33 8 57-30 24-41C81-84 22-81 20-136c-2-80 154-74 161-7" id="bC"/><g id="F"><use transform="matrix(0.04938271604938272,0,0,0.04938271604938272,0,0)" xlink:href="#aN"/><use transform="matrix(0.04938271604938272,0,0,0.04938271604938272,12.790123456790125,0)" xlink:href="#bC"/><use transform="matrix(0.04938271604938272,0,0,0.04938271604938272,22.66666666666667,0)" xlink:href="#bC"/><use transform="matrix(0.04938271604938272,0,0,0.04938271604938272,32.543209876543216,0)" xlink:href="#aT"/><use transform="matrix(0.04938271604938272,0,0,0.04938271604938272,43.35802469135803,0)" xlink:href="#bc"/><use transform="matrix(0.04938271604938272,0,0,0.04938271604938272,59.1604938271605,0)" xlink:href="#aV"/></g><path fill="#333" d="M33 0v-248h34V0H33" id="bD"/><path fill="#333" d="M190 0L58-211 59 0H30v-248h39L202-35l-2-213h31V0h-41" id="bE"/><path fill="#333" d="M30-248c118-7 216 8 213 122C240-48 200 0 122 0H30v-248zM63-27c89 8 146-16 146-99s-60-101-146-95v194" id="bF"/><g id="G"><use transform="matrix(0.06172839506172839,0,0,0.06172839506172839,0,0)" xlink:href="#bA"/><use transform="matrix(0.06172839506172839,0,0,0.06172839506172839,14.814814814814813,0)" xlink:href="#bD"/><use transform="matrix(0.06172839506172839,0,0,0.06172839506172839,20.98765432098765,0)" xlink:href="#bE"/><use transform="matrix(0.06172839506172839,0,0,0.06172839506172839,36.9753086419753,0)" xlink:href="#bF"/></g><path fill="#333" d="M30 0v-248h187v28H63v79h144v27H63v87h162V0H30" id="bG"/><path fill="#333" d="M101-251c82-7 93 87 43 132L82-64C71-53 59-42 53-27h129V0H18c2-99 128-94 128-182 0-28-16-43-45-43s-46 15-49 41l-32-3c6-41 34-60 81-64" id="bH"/><g id="H"><use transform="matrix(0.06172839506172839,0,0,0.06172839506172839,0,0)" xlink:href="#bG"/><use transform="matrix(0.06172839506172839,0,0,0.06172839506172839,14.814814814814813,0)" xlink:href="#bH"/><use transform="matrix(0.06172839506172839,0,0,0.06172839506172839,27.160493827160494,0)" xlink:href="#bG"/></g><g id="I"><use transform="matrix(0.06172839506172839,0,0,0.06172839506172839,0,0)" xlink:href="#aO"/><use transform="matrix(0.06172839506172839,0,0,0.06172839506172839,11.049382716049381,0)" xlink:href="#ac"/><use transform="matrix(0.06172839506172839,0,0,0.06172839506172839,23.39506172839506,0)" xlink:href="#ae"/><use transform="matrix(0.06172839506172839,0,0,0.06172839506172839,34.50617283950617,0)" xlink:href="#aj"/></g><g id="J"><use transform="matrix(0.06172839506172839,0,0,0.06172839506172839,0,0)" xlink:href="#aG"/><use transform="matrix(0.06172839506172839,0,0,0.06172839506172839,15.987654320987653,0)" xlink:href="#af"/><use transform="matrix(0.06172839506172839,0,0,0.06172839506172839,28.333333333333332,0)" xlink:href="#ao"/><use transform="matrix(0.06172839506172839,0,0,0.06172839506172839,40.67901234567901,0)" xlink:href="#aj"/><use transform="matrix(0.06172839506172839,0,0,0.06172839506172839,46.851851851851855,0)" xlink:href="#ai"/><use transform="matrix(0.06172839506172839,0,0,0.06172839506172839,51.7283950617284,0)" xlink:href="#ah"/><use transform="matrix(0.06172839506172839,0,0,0.06172839506172839,70.18518518518519,0)" xlink:href="#ac"/></g></defs></g></svg>